<svg width="90" height="91" viewBox="0 0 90 91" fill="none" xmlns="http://www.w3.org/2000/svg">
<path d="M30.9377 57.0413C41.0342 57.0413 49.219 48.8555 49.219 38.7577C49.219 28.66 41.0342 20.4741 30.9377 20.4741C20.8413 20.4741 12.6565 28.66 12.6565 38.7577C12.6565 48.8555 20.8413 57.0413 30.9377 57.0413Z" stroke="black" stroke-width="2" stroke-miterlimit="10"/>
<path d="M54.6372 21.1555C57.1517 20.4469 59.7887 20.2855 62.3708 20.6821C64.9529 21.0787 67.42 22.0241 69.606 23.4546C71.792 24.885 73.6461 26.7674 75.0434 28.9749C76.4407 31.1824 77.3489 33.6638 77.7066 36.2518C78.0643 38.8399 77.8634 41.4746 77.1173 43.9784C76.3712 46.4823 75.0972 48.7971 73.3813 50.7671C71.6653 52.7371 69.5472 54.3164 67.1695 55.3988C64.7919 56.4811 62.21 57.0413 59.5976 57.0416" stroke="black" stroke-width="2" stroke-linecap="round" stroke-linejoin="round"/>
<path d="M5.62354 70.1902C8.47869 66.1284 12.2691 62.8133 16.6747 60.5248C21.0804 58.2363 25.9719 57.0414 30.9363 57.0413C35.9008 57.0411 40.7924 58.2355 45.1982 60.5237C49.604 62.8119 53.3947 66.1267 56.2501 70.1883" stroke="black" stroke-width="2" stroke-linecap="round" stroke-linejoin="round"/>
<path d="M59.5975 57.0413C64.5624 57.0377 69.4551 58.2306 73.8613 60.5191C78.2674 62.8076 82.0574 66.1243 84.9101 70.1883" stroke="black" stroke-width="2" stroke-linecap="round" stroke-linejoin="round"/>
</svg>
